<svg xmlns="http://www.w3.org/2000/svg" xmlns:xlink="http://www.w3.org/1999/xlink" viewBox="0 0 110.54 105.81"><defs><style>.cls-1{fill:#fca89e;}.cls-2{fill:none;}.cls-3{fill:#a2ccda;}.cls-4{fill:#fff;}.cls-5{fill:#9ba7a8;}.cls-6{fill:#afb9ba;}.cls-7{fill:#2b79e6;}.cls-8{fill:#f7958d;}.cls-9{fill:#ffcaca;}.cls-10{fill:#833125;}.cls-11{fill:#0086b5;}.cls-12{fill:#1194c8;}.cls-13{clip-path:url(#clip-path);}.cls-14{fill:#ff645f;}.cls-15{fill:#0e96d2;}.cls-16{clip-path:url(#clip-path-2);}.cls-17{fill:#2a2873;}.cls-18{fill:#0e97cd;}</style><clipPath id="clip-path"><path class="cls-1" d="M29.82,23.13c-2.49,3.58-5.61,1.88-9.19-.61a7.9,7.9,0,1,1,9-13C33.23,12,32.31,19.55,29.82,23.13Z"/></clipPath><clipPath id="clip-path-2"><path class="cls-2" d="M13.17,60.78H33l2.47-29.37A4.51,4.51,0,0,0,31,26.52H15.19a4.51,4.51,0,0,0-4.49,4.89Z"/></clipPath></defs><title>Asset 2</title><g id="Layer_2" data-name="Layer 2"><g id="Layer_1-2" data-name="Layer 1"><path class="cls-3" d="M71.58,79.72C68.21,74.67,60,74,63.8,65.63s-12-10.3-7.36-22.49S51.61,28.21,52,18.54s5-13,13-12c4.83.64,10.22-1,14.72-4,7.35-4.84,16.18-.21,20,6.93s0,20.61-4.21,23.55-13.19,8.3-8.83,14.5c5.47,7.78,9,16.61,1.68,21.45-7.65,5-8.61,12-8.61,12Z"/><path class="cls-4" d="M76.17,83.92h-.36a39.22,39.22,0,0,1,.83-4.9c1.36-6.89,3.9-19.71,1.08-25.5-3.74-7.69-5.08-19.87-.2-27.3A47.27,47.27,0,0,1,88.92,14.4l.21.3A46.62,46.62,0,0,0,77.82,26.42c-4.8,7.32-3.47,19.34.23,26.94,2.87,5.9.41,18.31-1.06,25.73A40,40,0,0,0,76.17,83.92Z"/><path class="cls-4" d="M74.36,81.28a67.44,67.44,0,0,1-4.43-11.6c-1.89-6.15-1.28-9.42-.43-14,.28-1.52.6-3.24.85-5.24,1.84-14.72-6.18-23.72-9.6-27.56l-.24-.26.27-.24.24.26c3.45,3.88,11.54,13,9.69,27.84-.26,2-.58,3.74-.86,5.26-.83,4.49-1.44,7.73.43,13.79,2.48,8.08,4.38,11.5,4.4,11.53Z"/><path class="cls-4" d="M78.69,83.1l-.36,0a31.28,31.28,0,0,1,3.81-13.53l.59-1.12c2.44-4.64,5.21-9.89,1.52-15.51-3.32-5.06-4.1-9.79-2.33-14l.33.13c-1.72,4.15-1,8.76,2.3,13.71,3.81,5.8.86,11.39-1.5,15.88l-.59,1.12A30.92,30.92,0,0,0,78.69,83.1Z"/><polygon class="cls-5" points="89.8 55.47 95.14 27.9 110.54 27.86 103.41 55.35 89.8 55.47"/><polygon class="cls-6" points="89.28 52.24 94.91 28.91 108.18 28.76 101.3 55.35 89.28 52.24"/><polygon class="cls-7" points="90.08 53.65 95.69 29.99 106.82 30 100.89 52.95 90.08 53.65"/><path class="cls-8" d="M58.19,50.77c1.19.08,4,.78,4,2s-.85,2.61-1.27,2.57-3.15.65-4.16-.26S58.19,50.77,58.19,50.77Z"/><polygon class="cls-5" points="103.41 55.47 73.96 55.47 73.96 52.39 102.13 52.25 103.41 55.47"/><path class="cls-9" d="M0,43.79C0,59.4,10.36,72.05,23.14,72.05S46.28,59.4,46.28,43.79,35.92,15.53,23.14,15.53,0,28.18,0,43.79Z"/><path class="cls-9" d="M15.41,105.81c0-.19,0-.38,0-.58a7.7,7.7,0,0,1,15.39,0c0,.2,0,.39,0,.58Z"/><rect class="cls-9" x="22.84" y="55.77" width="1.35" height="50.04"/><rect class="cls-9" x="5.26" y="59.69" width="35.75" height="15.87" rx="4.16"/><path class="cls-10" d="M39.74,60.86H13.17v6.37a6.25,6.25,0,0,0,6.25,6.25H39.74A6.25,6.25,0,0,0,46,67.23v-.12A6.25,6.25,0,0,0,39.74,60.86Z"/><path class="cls-11" d="M32.27,28.21c-4.44,3.3,4.2,22.39,5.78,23.34s17.45,3.68,18.71,3.57,2.1-4.31,1.36-4.62S43.3,48.18,42.46,47,36.37,25.17,32.27,28.21Z"/><path class="cls-12" d="M13.17,60.78H33l2.47-29.37A4.51,4.51,0,0,0,31,26.52H15.19a4.51,4.51,0,0,0-4.49,4.89Z"/><path class="cls-8" d="M21.83,28.35h3.08a1.86,1.86,0,0,0,1.74-2V22.6a1.85,1.85,0,0,0-1.74-2H21.83a1.85,1.85,0,0,0-1.73,2v3.8A1.86,1.86,0,0,0,21.83,28.35Z"/><path class="cls-1" d="M29.82,23.13c-2.49,3.58-5.61,1.88-9.19-.61a7.9,7.9,0,1,1,9-13C33.23,12,32.31,19.55,29.82,23.13Z"/><g class="cls-13"><path class="cls-14" d="M24.38,11.9s-.88,2.65-1.25,2.53a2.71,2.71,0,0,0-3-.18c-1.43.95-.76,2.59.34,3.26s-.75,3.5-3.4,2S15.64,11,18,9s7.9-3.36,9.49-2.63,14.11,9.55,14.11,9.55Z"/></g><path class="cls-10" d="M45.6,65.78l3.27,36.42H44.06S36.37,78.48,35.6,70.78s4.81-6.35,4.81-6.35Z"/><path class="cls-10" d="M30.4,65.78l3.27,36.42H28.86s-7.7-23.72-8.47-31.42,4.81-6.35,4.81-6.35Z"/><path class="cls-14" d="M48.78,102.2H44.06v3.61h9.57c.63,0,.84-1.42.29-1.72Z"/><path class="cls-14" d="M33.67,102.2H29v3.61h9.56c.63,0,.85-1.42.29-1.72Z"/><rect class="cls-15" x="26.2" y="55.26" width="80.7" height="2.11"/><rect class="cls-15" x="26.2" y="55.64" width="0.77" height="50.04"/><rect class="cls-15" x="106.1" y="55.64" width="0.77" height="50.04"/><g class="cls-16"><circle class="cls-8" cx="23.14" cy="27.97" r="6.52"/></g><path class="cls-17" d="M59.88,48.13a2.64,2.64,0,1,0,2.64,2.64A2.64,2.64,0,0,0,59.88,48.13Zm0,4.33a1.7,1.7,0,1,1,1.7-1.69A1.69,1.69,0,0,1,59.88,52.46Z"/><polygon class="cls-17" points="59.26 45.8 68 45.8 66.33 55.38 60.92 55.38 59.26 45.8"/><path class="cls-14" d="M23.46,9.27C24.74,7.92,21.85-.15,15.72,0A12.06,12.06,0,0,0,6.64,5.12a11.67,11.67,0,0,0-1.54,8s6.14.37,8.69-3.25C16,6.73,18.43,5.7,19.66,6.32,22.68,7.85,22.59,10.18,23.46,9.27Z"/><path class="cls-11" d="M11.14,28.53c-4.44,3.3,4.2,22.39,5.78,23.33s17.45,3.68,18.71,3.58,2.1-4.31,1.37-4.63S22.18,48.5,21.34,47.34,15.24,25.48,11.14,28.53Z"/><rect class="cls-4" x="40.61" y="44.68" width="1.12" height="10.79" transform="translate(-15.85 19.22) rotate(-22.16)"/><path class="cls-8" d="M36.37,51.13c1.26-.42,4.2-1.16,5.15-.11s3.67,3.79,2.73,4.1a56.47,56.47,0,0,1-8.62.32C34.16,55.33,36.37,51.13,36.37,51.13Z"/><polygon class="cls-4" points="97.62 38.64 101.47 41.22 97.31 43.26 97.62 38.64"/><rect class="cls-18" x="70.11" y="77.61" width="10.51" height="25.65"/><path class="cls-12" d="M84.4,96.53a9,9,0,1,1-9-9A9,9,0,0,1,84.4,96.53Z"/><path class="cls-4" d="M61.7,22.64a.95.95,0,1,1-1.89,0,.95.95,0,0,1,1.89,0Z"/><path class="cls-4" d="M90,14.55a.95.95,0,1,1-.94-1A.95.95,0,0,1,90,14.55Z"/><path class="cls-4" d="M82.93,38.83a.95.95,0,1,1-1-.95A.95.95,0,0,1,82.93,38.83Z"/></g></g></svg>