<?xml version="1.0" encoding="iso-8859-1"?>
<!-- Generator: Adobe Illustrator 19.0.0, SVG Export Plug-In . SVG Version: 6.00 Build 0)  -->
<svg version="1.1" id="Capa_1" xmlns="http://www.w3.org/2000/svg" xmlns:xlink="http://www.w3.org/1999/xlink" x="0px" y="0px"
	 viewBox="0 0 512 512" style="enable-background:new 0 0 512 512;" xml:space="preserve">
<g>
	<g>
		<path d="M415.803,302c-9.096-32.266-27.976-61.376-54.029-82.939c-15.308-12.67-32.726-22.392-51.298-28.843
			C327.348,175.188,338,153.319,338,129V82c0-45.215-36.785-82-82-82c-45.215,0-82,36.785-82,82v47
			c0,24.319,10.652,46.188,27.524,61.218c-18.572,6.451-35.99,16.173-51.298,28.843c-26.052,21.563-44.933,50.673-54.029,82.939
			H59.241l23.333,210h346.852l23.333-210H415.803z M204,82c0-28.673,23.327-52,52-52c28.673,0,52,23.327,52,52v47
			c0,28.673-23.327,52-52,52c-28.673,0-52-23.327-52-52V82z M256,211c58.221,0,109.559,37.318,128.378,91H127.622
			C146.441,248.318,197.779,211,256,211z M402.574,482H109.426L92.759,332h326.482L402.574,482z"/>
	</g>
</g>
<g>
	<g>
		<circle cx="256" cy="401" r="20"/>
	</g>
</g>
<g>
</g>
<g>
</g>
<g>
</g>
<g>
</g>
<g>
</g>
<g>
</g>
<g>
</g>
<g>
</g>
<g>
</g>
<g>
</g>
<g>
</g>
<g>
</g>
<g>
</g>
<g>
</g>
<g>
</g>
</svg>
